<svg version="1.2" xmlns="http://www.w3.org/2000/svg" viewBox="0 0 512 512" width="32" height="32">
	<style>
		.s0 { fill: #ffffff;stroke: #ff4b4b;stroke-linejoin: round;stroke-width: 15 } 
	</style>
	<g>
		<g>
			<path fill-rule="evenodd" class="s0" d="m256 319.84c-35.35 0-64 28.66-64 64v128h128v-128c0-35.34-28.65-64-64-64zm106.67 64v128h85.33c35.35 0 64-28.65 64-64v-194.58c0-11.08-4.3-21.73-12.01-29.7l-181.29-195.99c-31.99-34.61-85.98-36.73-120.59-4.74q-2.46 2.28-4.74 4.74l-180.97 195.93c-7.95 8-12.4 18.81-12.4 30.08v194.26c0 35.35 28.65 64 64 64h85.33v-128c0.4-58.17 47.37-105.67 104.08-107.04 58.6-1.42 108.81 46.9 109.26 107.04z"/>
		</g>
	</g>
</svg>